<svg width="20" height="20" xmlns="http://www.w3.org/2000/svg"><path d="M.525.046a1.027 1.027 0 0 0-.287.15C-.01.398 0 .287 0 3.174c0 3.025-.018 2.863.354 3.069l.202.114h5.319v5.24c0 5.583-.005 5.42.201 5.492.04.012 1.023.024 2.18.024h2.103v1.115c0 .617.022 1.182.045 1.257.053.178.336.424.542.475.216.055 8.256.051 8.48 0a.96.96 0 0 0 .305-.146c.278-.206.269-.107.269-2.594v-2.27l-.103-.134a1.054 1.054 0 0 0-.251-.222l-.153-.09H15.66l-.995-.436-.996-.439-1.399.012-1.404.012-.16.11c-.32.214-.324.226-.337 1.543l-.014 1.174H6.592v-6.398l.148-.02c.184-.031 3.381-.031 3.516 0 .098.02.098.024.112 1.195l.013 1.178.121.158a.865.865 0 0 0 .314.245c.197.083.21.083 4.377.083 2.838 0 4.215-.011 4.3-.043a.985.985 0 0 0 .444-.36c.054-.087.063-.494.063-2.345 0-2.495.009-2.408-.305-2.621l-.157-.107-1.978-.02-1.977-.02-.964-.423-.964-.427h-1.319c-1.256 0-1.332.004-1.52.083a.865.865 0 0 0-.314.245l-.12.158-.014 1.183-.014 1.178H6.591V6.361l1.27-.011 1.273-.012.162-.111c.34-.225.323-.099.323-2.622V1.351l-.126-.166a.896.896 0 0 0-.3-.245C9.026.865 8.932.86 7.106.86h-1.91l-.95-.426L3.295.01l-1.3-.008C.977-.005.658.003.524.046zM4.08 1.06L5 1.474l1.95.02 1.952.02V5.705l-4.09.012-4.094.008V.62L1.942.63l1.22.012zm10.403 6.564l.991.435h3.807v4.231l-4.09-.008-4.093-.012-.01-2.491c-.004-1.372 0-2.515.01-2.543.013-.036.296-.047 1.206-.047h1.184zm0 7.078l.996.435H19.282v4.231l-4.09-.008-4.094-.012-.009-2.543-.009-2.538H13.493z" fill="#ffffff"/></svg>